<svg width="143" height="36" viewBox="0 0 143 36" fill="none" xmlns="http://www.w3.org/2000/svg">
<g opacity="0.15">
<g opacity="0.15">
<path opacity="0.15" fill-rule="evenodd" clip-rule="evenodd" d="M83.832 28.5969C83.8203 28.591 83.8086 28.5851 83.7968 28.5793H83.8349C83.8349 28.5822 83.832 28.591 83.832 28.5969Z" fill="#1A1919"/>
</g>
</g>
<path fill-rule="evenodd" clip-rule="evenodd" d="M95.6109 22.285C96.7698 22.2554 97.6804 21.7765 98.3279 20.8541C98.9576 19.9287 99.2769 18.7284 99.268 17.2413C99.2592 16.0646 99.1084 15.0831 98.7773 14.3232C98.1623 12.8657 97.0507 12.1562 95.4187 12.1975C93.772 12.2389 92.6515 12.9899 92.0395 14.4445C91.7172 15.219 91.5783 16.2124 91.5842 17.4187C91.5931 18.8614 91.9272 20.0263 92.5864 20.9487C93.2605 21.874 94.2568 22.3175 95.6109 22.285ZM96.6841 8.35711C98.9665 8.30093 100.767 9.05483 102.065 10.5863C103.363 12.1355 104.013 14.1725 104.028 16.6648C104.046 19.2487 103.422 21.4276 102.159 23.1512C100.9 24.8926 99.1261 25.7825 96.8408 25.8416C95.4069 25.88 94.245 25.6406 93.3788 25.1143C92.8525 24.798 92.2967 24.2333 91.6877 23.4321L91.6995 25.5312L87.2471 25.6435L87.1081 3.11235L91.6256 3L91.6759 11.0238C92.2583 10.2404 92.8732 9.63134 93.5739 9.20561C94.3869 8.66458 95.4276 8.38963 96.6841 8.35711ZM77.7273 12.2064C76.6718 12.1946 75.8558 12.5021 75.2823 13.1229C74.694 13.7615 74.3303 14.6071 74.1736 15.6921L81.207 15.766C81.1331 14.6159 80.7843 13.7319 80.1397 13.1288C79.4952 12.5228 78.6852 12.2153 77.7273 12.2064ZM77.7568 8.58475C79.1848 8.59953 80.4827 8.88336 81.6328 9.41256C82.7828 9.94472 83.7348 10.7873 84.4739 11.9137C85.148 12.913 85.5767 14.0808 85.7629 15.3905C85.8694 16.1622 85.9108 17.2649 85.8842 18.7106L74.0435 18.5865C74.0938 20.2716 74.6378 21.4572 75.6548 22.146C76.2668 22.5599 77.0148 22.7876 77.8928 22.7994C78.833 22.8112 79.5839 22.5511 80.1723 22.0514C80.5004 21.7706 80.7783 21.398 81.0267 20.8955L85.6388 20.9457C85.5176 21.9509 84.9736 22.9531 84.0068 23.9643C82.5167 25.5696 80.4472 26.3649 77.7835 26.3383C75.575 26.3146 73.6474 25.6169 71.9681 24.2156C70.3066 22.829 69.4788 20.585 69.5024 17.5014C69.5261 14.5923 70.3066 12.3808 71.8291 10.8553C73.3458 9.31204 75.3355 8.5611 77.7568 8.58475ZM115.265 17.2827C114.967 17.4364 114.668 17.5665 114.387 17.6552C114.092 17.7498 113.684 17.8207 113.178 17.8828L112.152 18.0099C111.212 18.1282 110.517 18.2701 110.089 18.4859C109.367 18.8496 108.995 19.4527 108.945 20.2923C108.897 21.0521 109.069 21.605 109.471 21.9598C109.882 22.3234 110.387 22.5215 110.999 22.5599C111.966 22.6191 112.865 22.3826 113.704 21.8829C114.559 21.3744 115.073 20.3929 115.165 18.9205L115.265 17.2827ZM112.424 15.021C113.246 14.9116 113.843 14.7844 114.195 14.6278C114.84 14.3587 115.162 13.9478 115.162 13.3742C115.162 12.6765 114.923 12.2005 114.423 11.9462C113.941 11.6743 113.231 11.5471 112.279 11.5471C111.215 11.5442 110.476 11.7984 110.024 12.3217C109.716 12.7001 109.506 13.2087 109.394 13.8591L105.075 13.8532C105.172 12.3779 105.592 11.1746 106.331 10.2226C107.508 8.73258 109.554 7.9905 112.439 7.99642C114.308 7.99937 115.987 8.36302 117.433 9.09918C118.902 9.8442 119.626 11.2278 119.626 13.2589V20.452C119.626 26.1491 114.322 25.815 109.894 25.8091C108.33 25.8061 107.058 25.3745 106.044 24.5023C105.027 23.6272 104.531 22.3885 104.531 20.789C104.531 18.7106 105.338 17.2058 106.964 16.2863C107.851 15.7808 109.172 15.4171 110.896 15.1984L112.424 15.021ZM124.179 5.21143C125.663 5.18187 126.846 6.35854 126.813 7.83086C126.784 9.30317 125.545 10.5301 124.061 10.5597C122.577 10.5892 121.394 9.41256 121.427 7.94024C121.459 6.46793 122.695 5.24395 124.179 5.21143ZM119.535 32.2098C119.774 32.2216 119.951 32.2335 120.064 32.2483C120.176 32.2453 120.256 32.2453 120.351 32.2423C120.785 32.2335 121.125 32.1152 121.356 31.9024C121.583 31.6924 121.705 31.2756 121.719 30.6547L122.124 12.029L126.586 11.9374L126.178 30.6429C126.139 32.3636 125.776 33.6289 125.069 34.4715C124.377 35.2993 123.035 35.7398 121.045 35.7812C120.915 35.7842 120.708 35.7724 120.451 35.7783C120.179 35.7664 119.86 35.7576 119.458 35.7664L119.535 32.2098ZM50.8412 17.2827C50.5397 17.4364 50.244 17.5665 49.9632 17.6552C49.6675 17.7498 49.2566 17.8207 48.754 17.8828L47.7281 18.0099C46.7879 18.1282 46.0932 18.2701 45.6645 18.4859C44.9431 18.8496 44.5706 19.4527 44.5203 20.2923C44.473 21.0521 44.6445 21.605 45.0466 21.9598C45.4546 22.3234 45.9631 22.5215 46.5751 22.5599C47.5418 22.6191 48.4406 22.3826 49.2802 21.8829C50.1317 21.3744 50.6461 20.3929 50.7378 18.9205L50.8412 17.2827ZM47.9942 15.021C48.8161 14.9116 49.4133 14.7844 49.768 14.6278C50.4125 14.3587 50.7348 13.9478 50.7348 13.3742C50.7348 12.6765 50.4924 12.2005 49.9927 11.9462C49.5108 11.6743 48.8013 11.5471 47.8493 11.5471C46.785 11.5442 46.0459 11.7984 45.5935 12.3217C45.286 12.7001 45.0761 13.2087 44.9638 13.8591L40.6474 13.8532C40.7449 12.3779 41.1618 11.1746 41.9039 10.2226C43.0805 8.73258 45.1264 7.9905 48.0119 7.99642C49.8804 7.99937 51.5567 8.36302 53.0054 9.09918C54.4747 9.8442 55.1961 11.2278 55.1961 13.2589L55.1931 20.452C55.1931 26.1491 49.8922 25.815 45.4605 25.8091C43.8965 25.8061 42.6252 25.3745 41.6082 24.5023C40.5941 23.6272 40.0945 22.3885 40.0945 20.789C40.0945 18.7106 40.8987 17.2058 42.5277 16.2863C43.4146 15.7808 44.7361 15.4171 46.4598 15.1984L47.9942 15.021ZM33.4602 3.13304H38.2201V25.4247H33.4602V3.13304ZM138.642 17.2827C138.344 17.4364 138.045 17.5665 137.764 17.6552C137.468 17.7498 137.06 17.8207 136.555 17.8828L135.529 18.0099C134.589 18.1282 133.897 18.2701 133.465 18.4859C132.744 18.8496 132.372 19.4527 132.321 20.2923C132.277 21.0521 132.448 21.605 132.848 21.9598C133.258 22.3234 133.764 22.5215 134.376 22.5599C135.34 22.6191 136.242 22.3826 137.081 21.8829C137.933 21.3744 138.447 20.3929 138.539 18.9205L138.642 17.2827ZM135.798 15.021C136.62 14.9116 137.217 14.7844 137.572 14.6278C138.216 14.3587 138.539 13.9478 138.539 13.3742C138.539 12.6765 138.296 12.2005 137.797 11.9462C137.315 11.6743 136.605 11.5471 135.653 11.5471C134.589 11.5442 133.85 11.7984 133.397 12.3217C133.093 12.7001 132.883 13.2087 132.771 13.8591L128.451 13.8502C128.549 12.3749 128.969 11.1717 129.708 10.2197C130.884 8.72962 132.93 7.98755 135.816 7.99346C137.684 7.99642 139.364 8.36006 140.812 9.09622C142.279 9.84125 143 11.2249 143 13.256V20.449C143 26.1461 137.699 25.812 133.267 25.8061C131.703 25.8032 130.432 25.3715 129.418 24.4994C128.404 23.6243 127.904 22.3855 127.904 20.7861C127.904 18.7077 128.708 17.2028 130.337 16.2834C131.224 15.7778 132.546 15.4142 134.27 15.1954L135.798 15.021ZM58.8828 8.55223H63.2968V11.3609C64.0063 10.4769 66.1527 8.78284 69.2215 9.52195V13.9005C66.2207 13.3979 63.3352 15.8872 63.2968 18.548V25.478H58.9419L58.8828 8.55223Z" fill="#DD1E2F"/>
<path d="M58.9212 31.3968C58.8798 31.2874 58.8443 31.1869 58.8177 31.0952C58.7911 31.0036 58.7763 30.9031 58.7763 30.7937C58.7763 30.5335 58.8621 30.3177 59.0365 30.1433C59.2109 29.9688 59.4297 29.8831 59.6899 29.8831C59.8318 29.8831 59.953 29.9067 60.0476 29.954C60.1422 30.0013 60.222 30.0546 60.2841 30.1166C60.3935 30.2142 60.4733 30.3206 60.5266 30.4389C60.5768 30.5601 60.63 30.7139 60.6862 30.906C60.8222 31.3524 60.9375 31.7338 61.0292 32.0531C61.1208 32.3754 61.1859 32.6267 61.2184 32.8129L61.3307 33.3658L61.5052 32.6592L62.0994 30.6695C62.1201 30.6015 62.1467 30.5217 62.1822 30.4359C62.2147 30.3473 62.265 30.2615 62.33 30.1787C62.395 30.096 62.4808 30.025 62.5872 29.9688C62.6936 29.9127 62.8237 29.8831 62.9804 29.8831C63.0839 29.8831 63.1903 29.9008 63.2997 29.9393C63.4091 29.9777 63.5067 30.0339 63.5924 30.1078C63.6781 30.1846 63.7491 30.2763 63.8082 30.3916C63.8644 30.5039 63.894 30.6311 63.894 30.7759C63.894 30.8498 63.891 30.9178 63.8792 30.977C63.8674 31.0331 63.8496 31.1011 63.823 31.178L62.5843 34.5809C62.5429 34.6844 62.4985 34.7819 62.4512 34.8736C62.4039 34.9652 62.333 35.0451 62.2413 35.1131C62.1497 35.1811 62.0314 35.2372 61.8836 35.2757C61.7358 35.3171 61.5525 35.3378 61.3248 35.3378C61.1238 35.3378 60.9671 35.323 60.8429 35.2934C60.7187 35.2638 60.6123 35.2106 60.5266 35.1397C60.4379 35.0658 60.364 34.9771 60.2989 34.8677C60.2368 34.7583 60.1777 34.6223 60.1156 34.4567L58.9212 31.3968Z" fill="#575756"/>
<path d="M65.3871 29.5105C65.2511 29.5105 65.124 29.4839 65.0087 29.4337C64.8904 29.3834 64.7899 29.3125 64.7012 29.2297C64.6125 29.1439 64.5416 29.0434 64.4913 28.9222C64.4381 28.804 64.4144 28.6768 64.4144 28.5379C64.4144 28.4078 64.441 28.2836 64.4913 28.1624C64.5416 28.0441 64.6125 27.9407 64.7012 27.8549C64.7899 27.7692 64.8904 27.7012 65.0087 27.6509C65.124 27.6007 65.2511 27.5741 65.3871 27.5741C65.5172 27.5741 65.6414 27.6007 65.7626 27.6509C65.8808 27.7041 65.9843 27.7721 66.07 27.8549C66.1558 27.9407 66.2238 28.0441 66.274 28.1624C66.3243 28.2836 66.3509 28.4078 66.3509 28.5379C66.3509 28.6739 66.3243 28.801 66.274 28.9222C66.2208 29.0434 66.1528 29.1439 66.07 29.2297C65.9843 29.3154 65.8808 29.3834 65.7626 29.4337C65.6414 29.4839 65.5172 29.5105 65.3871 29.5105ZM64.4144 30.9651C64.4233 30.8557 64.4351 30.7463 64.4499 30.637C64.4676 30.5276 64.5209 30.4123 64.6096 30.2881C64.6569 30.2201 64.7426 30.1344 64.8609 30.0309C64.9791 29.9304 65.1565 29.8771 65.3901 29.8771C65.5142 29.8771 65.6325 29.8978 65.7448 29.9422C65.8572 29.9865 65.9607 30.0545 66.0523 30.1432C66.144 30.2319 66.2179 30.3472 66.274 30.4862C66.3273 30.6251 66.3568 30.7877 66.3568 30.974V34.2024C66.3568 34.3178 66.348 34.4331 66.3361 34.5484C66.3213 34.6637 66.277 34.7849 66.2031 34.9061C66.141 35.0096 66.073 35.0923 65.9961 35.1515C65.9193 35.2136 65.8454 35.2609 65.7714 35.2904C65.6946 35.32 65.6236 35.3407 65.5556 35.3525C65.4876 35.3643 65.4344 35.3673 65.393 35.3673C65.1949 35.3673 65.0235 35.32 64.8756 35.2313C64.7278 35.1396 64.6184 35.0273 64.5416 34.8972C64.4854 34.7967 64.4558 34.6932 64.444 34.5897C64.4351 34.4863 64.4263 34.3917 64.4174 34.303V30.9651H64.4144Z" fill="#575756"/>
<path d="M67.3027 31.0183C67.3027 30.9563 67.3057 30.8853 67.3146 30.8084C67.3234 30.7316 67.3382 30.6458 67.3619 30.5631C67.3855 30.4773 67.418 30.3945 67.4624 30.3118C67.5067 30.229 67.5659 30.1521 67.6398 30.0752C67.7846 29.9452 67.962 29.8801 68.1719 29.8801C68.2399 29.8801 68.3079 29.8831 68.373 29.889C68.438 29.8979 68.5001 29.9126 68.5622 29.9392C68.6864 29.9865 68.7839 30.0516 68.8549 30.1285C68.9258 30.2083 68.982 30.2881 69.0175 30.3709C69.0559 30.4537 69.0796 30.5335 69.0884 30.6104C69.1003 30.6902 69.1062 30.7523 69.115 30.7996C69.1298 30.7671 69.1417 30.7286 69.1564 30.6931C69.1712 30.6547 69.186 30.6192 69.2067 30.5867C69.3102 30.4093 69.4609 30.2438 69.662 30.0959C69.863 29.9452 70.1025 29.8683 70.3834 29.8683C70.6849 29.8683 70.9067 29.954 71.0515 30.1285C71.1964 30.3029 71.2673 30.5128 71.2673 30.7582C71.2673 30.8469 71.2585 30.9385 71.2378 31.0302C71.22 31.1218 71.1816 31.2076 71.1254 31.2874C71.0693 31.3672 70.9983 31.4352 70.9037 31.4914C70.8121 31.5505 70.6967 31.586 70.5608 31.6008C70.5401 31.6008 70.5016 31.6037 70.4425 31.6067C70.3834 31.6096 70.3213 31.6156 70.2562 31.6156C70.1912 31.6185 70.1291 31.6215 70.067 31.6274C70.0079 31.6303 69.9665 31.6333 69.9458 31.6333C69.7802 31.654 69.6531 31.7013 69.5615 31.7722C69.4698 31.8432 69.3989 31.926 69.3516 32.0176C69.3013 32.1093 69.2717 32.2039 69.2658 32.3015C69.254 32.3961 69.251 32.4788 69.251 32.5468V34.0635C69.2422 34.167 69.2392 34.2675 69.2363 34.3651C69.2333 34.4626 69.2156 34.5602 69.1801 34.6578C69.1121 34.8913 68.9938 35.0687 68.8283 35.1899C68.6597 35.3111 68.4735 35.3762 68.2695 35.3762C68.1483 35.3762 68.0271 35.3525 67.9059 35.3052C67.7876 35.2579 67.6841 35.184 67.5954 35.0894C67.4594 34.9445 67.3766 34.7908 67.35 34.6252C67.3234 34.4567 67.3086 34.3118 67.3086 34.1877V31.0183H67.3027Z" fill="#575756"/>
<path d="M72.3554 29.4278C72.3643 29.2918 72.3791 29.1528 72.4087 29.008C72.4353 28.866 72.5062 28.7241 72.6245 28.5881C72.6718 28.5349 72.7487 28.4699 72.8551 28.393C72.9615 28.3161 73.1093 28.2807 73.3015 28.2807C73.4198 28.2807 73.5321 28.3014 73.6445 28.3428C73.7568 28.3841 73.8544 28.4433 73.9401 28.5261C74.0258 28.6088 74.0968 28.7153 74.15 28.8424C74.2032 28.9725 74.2328 29.1262 74.2328 29.3036V29.9599H74.6437C74.8566 29.9688 75.0192 30.025 75.1345 30.1285C75.2528 30.2349 75.3119 30.3916 75.3208 30.6044C75.3208 30.8291 75.2498 30.9977 75.105 31.107C75.0163 31.181 74.9039 31.2253 74.7709 31.2342C74.6378 31.246 74.4604 31.246 74.2328 31.2401V33.3421C74.2328 33.4249 74.2446 33.5018 74.2624 33.5727C74.2831 33.6437 74.3511 33.6939 74.4664 33.7206C74.493 33.7294 74.558 33.7353 74.6556 33.7413C74.7561 33.7472 74.8211 33.759 74.8566 33.7738C74.9512 33.8063 75.0488 33.8802 75.1434 33.9926C75.238 34.1049 75.2883 34.2616 75.2883 34.4567C75.2883 34.6755 75.238 34.844 75.1404 34.9593C75.0399 35.0746 74.9276 35.1604 74.7975 35.2136C74.6674 35.2697 74.5432 35.3023 74.422 35.3111C74.3038 35.32 74.2239 35.3259 74.1825 35.3259C74.0465 35.3259 73.9135 35.32 73.7834 35.3111C73.6533 35.2993 73.5232 35.2786 73.3932 35.2431C73.133 35.1751 72.929 35.0805 72.7782 34.9564C72.6274 34.8322 72.5181 34.6962 72.4441 34.5395C72.3732 34.3858 72.3288 34.2261 72.3111 34.0576C72.2934 33.892 72.2845 33.7294 72.2845 33.5698C72.2845 33.4072 72.2874 33.2239 72.2904 33.0228C72.2934 32.8218 72.2963 32.6178 72.2993 32.4079C72.3022 32.198 72.3081 31.994 72.3141 31.7929C72.3229 31.5919 72.3259 31.4086 72.3259 31.246C72.1544 31.2549 72.0273 31.2549 71.9445 31.246C71.8617 31.2371 71.7937 31.2283 71.7405 31.2135C71.6045 31.1662 71.504 31.0834 71.4419 30.9622C71.3798 30.8439 71.3503 30.7168 71.3503 30.5778V30.4803C71.3503 30.4507 71.3591 30.4152 71.3709 30.3709C71.3976 30.2763 71.4389 30.2024 71.4892 30.1462C71.5395 30.09 71.5956 30.0516 71.6518 30.022C71.7109 29.9954 71.7671 29.9777 71.8262 29.9718C71.8824 29.9659 71.9327 29.9629 71.9741 29.9629H72.3525V29.4278H72.3554Z" fill="#575756"/>
<path d="M75.8409 31.0893C75.8409 30.9947 75.8469 30.8942 75.8557 30.7877C75.8646 30.6813 75.8971 30.566 75.9533 30.4448C76.0095 30.3147 76.0745 30.2142 76.1543 30.1373C76.2342 30.0604 76.314 30.0043 76.3968 29.9688C76.4795 29.9304 76.5564 29.9097 76.6333 29.8978C76.7072 29.886 76.7663 29.8831 76.8077 29.8831C76.8284 29.8831 76.8668 29.886 76.92 29.889C76.9733 29.8919 77.0383 29.9067 77.1093 29.9304C77.1802 29.957 77.2571 29.9924 77.334 30.0427C77.4138 30.0959 77.4877 30.1639 77.5557 30.2526C77.603 30.3147 77.6503 30.4034 77.7006 30.5246C77.7479 30.6429 77.7715 30.8498 77.7715 31.1425V33.2445C77.7715 33.3214 77.7804 33.3953 77.7922 33.4752C77.807 33.555 77.8425 33.6318 77.9046 33.7058C77.9459 33.7619 78.0051 33.8122 78.0849 33.8595C78.1647 33.9098 78.2593 33.9334 78.3658 33.9334C78.5638 33.9334 78.7205 33.8654 78.8388 33.7265C78.9423 33.6111 79.0044 33.4752 79.025 33.3214C79.0457 33.1677 79.0546 32.9548 79.0546 32.6799V31.0922C79.0546 30.9769 79.0605 30.8498 79.0753 30.7168C79.0901 30.5837 79.1285 30.4566 79.1965 30.3324C79.2734 30.1964 79.3769 30.087 79.5158 30.0043C79.6518 29.9215 79.8115 29.8801 79.9977 29.8801C80.1958 29.8801 80.3495 29.9185 80.453 29.9924C80.5594 30.0664 80.6334 30.1255 80.6718 30.1669C80.8167 30.3117 80.9024 30.4596 80.932 30.6163C80.9615 30.7729 80.9763 30.9119 80.9763 31.0272V34.3591C80.9763 34.433 80.9734 34.5099 80.9615 34.5838C80.9527 34.6607 80.929 34.7435 80.8965 34.841C80.8078 35.048 80.6836 35.1869 80.5269 35.2609C80.3702 35.3348 80.2224 35.3732 80.0864 35.3732C79.977 35.3732 79.8765 35.3555 79.7849 35.3229C79.6932 35.2875 79.6075 35.2431 79.5336 35.1899C79.3739 35.0598 79.2793 34.9149 79.2468 34.7553C79.2143 34.5957 79.1906 34.4567 79.1877 34.3414C79.1256 34.5188 79.0369 34.6725 78.9245 34.8026C78.8122 34.9327 78.6851 35.0391 78.5402 35.1249C78.3953 35.2106 78.2445 35.2756 78.079 35.32C77.9134 35.3643 77.7508 35.388 77.5882 35.388C77.4019 35.388 77.2009 35.3555 76.9821 35.2845C76.7634 35.2165 76.5682 35.1042 76.3879 34.9475C76.2578 34.8322 76.1573 34.705 76.0863 34.572C76.0154 34.439 75.9592 34.297 75.9208 34.1463C75.8823 33.9955 75.8616 33.8358 75.8557 33.6703C75.8469 33.5018 75.8439 33.3303 75.8439 33.1529V31.0893H75.8409Z" fill="#575756"/>
<path d="M86.8066 34.4804C86.8066 34.5484 86.8007 34.6341 86.7889 34.7376C86.7741 34.8381 86.7386 34.9386 86.6854 35.0303C86.6322 35.1219 86.5464 35.2017 86.4341 35.2727C86.3217 35.3407 86.165 35.3732 85.967 35.3732C85.8044 35.3732 85.6684 35.3466 85.5619 35.2963C85.4555 35.2431 85.3727 35.181 85.3106 35.1071C85.2515 35.0332 85.2042 34.9563 85.1717 34.8824C85.1421 34.8056 85.1155 34.7435 85.0948 34.6873C85.0209 34.7612 84.9381 34.841 84.8494 34.9268C84.7607 35.0125 84.6484 35.0923 84.5094 35.1633C84.3734 35.2343 84.2108 35.2934 84.0216 35.3377C83.8354 35.3821 83.6077 35.4057 83.3416 35.4057C82.7947 35.4057 82.366 35.2697 82.0556 34.9948C81.7451 34.7228 81.5884 34.3237 81.5884 33.7945C81.5884 33.4959 81.6417 33.2446 81.7481 33.0465C81.8545 32.8484 81.9876 32.6858 82.1531 32.5587C82.3157 32.4315 82.4931 32.334 82.6853 32.266C82.8745 32.198 83.0608 32.1418 83.2381 32.1004C83.2854 32.0915 83.3741 32.0768 83.4983 32.0501C83.6225 32.0235 83.7585 31.9969 83.9033 31.9674C84.0482 31.9408 84.1813 31.9141 84.3084 31.8905C84.4326 31.8668 84.5242 31.8491 84.5804 31.8343C84.6484 31.8225 84.7282 31.7929 84.8199 31.7486C84.9115 31.7042 84.9588 31.6126 84.9588 31.4766C84.9588 31.3583 84.9085 31.2578 84.811 31.175C84.7105 31.0893 84.5508 31.0479 84.332 31.0479C84.1635 31.0479 84.0098 31.0656 83.8767 31.1041C83.7437 31.1425 83.6314 31.2283 83.5427 31.3642C83.5249 31.3968 83.5013 31.4293 83.4835 31.4618C83.4628 31.4914 83.4421 31.5269 83.4214 31.5594C83.3653 31.6481 83.2795 31.7338 83.1613 31.8107C83.043 31.8875 82.9011 31.9289 82.7355 31.9289C82.635 31.9289 82.5316 31.9141 82.4281 31.8787C82.3276 31.8462 82.2359 31.7959 82.1561 31.7338C82.0763 31.6717 82.0142 31.5949 81.961 31.5032C81.9107 31.4116 81.8841 31.3081 81.8841 31.1898C81.8841 31.1129 81.8989 31.0272 81.9343 30.9237C81.9698 30.8203 82.026 30.7168 82.1088 30.6074C82.1916 30.498 82.3009 30.3916 82.4399 30.2881C82.5789 30.1876 82.7592 30.0989 82.978 30.022C83.1968 29.9481 83.4126 29.8978 83.6225 29.8742C83.8324 29.8505 84.0364 29.8387 84.2286 29.8387C84.3498 29.8387 84.5006 29.8446 84.6779 29.8535C84.8553 29.8653 85.0416 29.889 85.2338 29.9304C85.4259 29.9718 85.6151 30.0309 85.8014 30.1078C85.9906 30.1876 86.1562 30.2999 86.304 30.4477C86.4518 30.5926 86.5701 30.7759 86.6617 30.9947C86.7534 31.2135 86.7977 31.4796 86.7977 31.7959V34.4804H86.8066ZM85.015 32.8218C84.8908 32.8632 84.7903 32.8987 84.7134 32.9312C84.6336 32.9607 84.5597 32.9873 84.4946 33.008C84.4266 33.0287 84.3527 33.0494 84.2788 33.0701C84.202 33.0908 84.1133 33.1145 84.0127 33.1411C83.9566 33.1559 83.8974 33.1706 83.8324 33.1913C83.7674 33.212 83.7053 33.2416 83.6461 33.2771C83.587 33.3155 83.5397 33.3599 83.4983 33.416C83.4569 33.4692 83.4392 33.5372 83.4392 33.62C83.4392 33.6348 83.4421 33.6644 83.4481 33.7117C83.454 33.7619 83.4747 33.8092 83.5101 33.8595C83.5427 33.9098 83.5988 33.9541 83.6727 33.9925C83.7496 34.031 83.8531 34.0487 83.9891 34.0487C84.2286 34.0487 84.4296 33.9985 84.5952 33.9009C84.7578 33.8033 84.8997 33.7058 85.015 33.6082V32.8218Z" fill="#575756"/>
<path d="M87.7821 29.0701C87.788 28.9459 87.8057 28.807 87.8324 28.6532C87.859 28.4995 87.9417 28.3517 88.0777 28.2068C88.1605 28.124 88.261 28.056 88.3793 28.0028C88.5005 27.9496 88.6276 27.92 88.7636 27.92C88.9322 27.92 89.0829 27.9584 89.2101 28.0324C89.3372 28.1092 89.4407 28.2009 89.5235 28.3073C89.6181 28.4433 89.6742 28.5734 89.692 28.6976C89.7068 28.8217 89.7156 28.94 89.7156 29.0553V34.2291C89.7097 34.3533 89.6979 34.4745 89.6801 34.5927C89.6624 34.711 89.6092 34.8381 89.5205 34.9653C89.4111 35.1308 89.284 35.2373 89.1391 35.2875C88.9942 35.3378 88.8612 35.3644 88.74 35.3644C88.6099 35.3644 88.4946 35.3466 88.397 35.3082C88.2965 35.2698 88.2137 35.2254 88.1457 35.1693C87.9595 35.0244 87.8531 34.8647 87.8235 34.6873C87.7939 34.51 87.7762 34.3562 87.7762 34.2261V29.0701H87.7821Z" fill="#575756"/>
<path d="M96.5953 32.6976C96.5953 32.2453 96.6515 31.8639 96.7639 31.5505C96.8762 31.2371 97.0063 30.9917 97.1482 30.8114C97.231 30.702 97.3404 30.5897 97.4793 30.4685C97.6183 30.3502 97.7868 30.2408 97.9819 30.1403C98.177 30.0427 98.3988 29.9599 98.6501 29.8949C98.8984 29.8299 99.1734 29.7973 99.4749 29.7973C99.8386 29.7973 100.164 29.8417 100.459 29.9304C100.752 30.0191 101 30.1373 101.207 30.2822C101.411 30.43 101.571 30.5956 101.683 30.7789C101.796 30.9651 101.852 31.1514 101.852 31.3436C101.852 31.583 101.775 31.7811 101.621 31.9437C101.468 32.1034 101.255 32.1862 100.98 32.1862C100.885 32.1862 100.799 32.1714 100.728 32.1448C100.658 32.1182 100.595 32.0886 100.548 32.0531C100.501 32.0176 100.462 31.9851 100.436 31.9496C100.409 31.9171 100.391 31.8905 100.383 31.8787C100.35 31.8314 100.323 31.7811 100.3 31.7279C100.279 31.6776 100.252 31.6274 100.217 31.5801C100.202 31.5594 100.184 31.5269 100.155 31.4825C100.128 31.4382 100.087 31.3968 100.031 31.3554C99.9775 31.314 99.9036 31.2756 99.8149 31.243C99.7262 31.2105 99.6198 31.1928 99.4956 31.1928C99.2768 31.1928 99.1024 31.2371 98.9753 31.3317C98.8452 31.4234 98.7447 31.5416 98.6737 31.6865C98.6028 31.8314 98.5555 31.9881 98.5348 32.1566C98.5141 32.3281 98.5052 32.4877 98.5052 32.6385C98.5052 32.6858 98.5082 32.7479 98.5111 32.8188C98.5141 32.8898 98.52 32.9667 98.5318 33.0494C98.5436 33.1322 98.5584 33.215 98.5821 33.3067C98.6057 33.3953 98.6353 33.4811 98.6678 33.5639C98.7624 33.7679 98.8836 33.9009 99.0255 33.963C99.1704 34.0251 99.3123 34.0546 99.4572 34.0546C99.6967 34.0546 99.8711 34.0044 99.9864 33.9009C100.099 33.7974 100.19 33.6821 100.258 33.552C100.285 33.5047 100.309 33.4574 100.329 33.4072C100.35 33.3599 100.377 33.3155 100.412 33.2741C100.501 33.1529 100.601 33.0642 100.72 33.014C100.835 32.9637 100.962 32.9371 101.098 32.9371C101.323 32.9371 101.512 33.011 101.66 33.1588C101.811 33.3037 101.887 33.5077 101.887 33.7679C101.887 33.9719 101.834 34.1788 101.728 34.3828C101.621 34.5868 101.465 34.7671 101.255 34.9268C101.045 35.0835 100.788 35.2106 100.48 35.3111C100.173 35.4087 99.8208 35.459 99.4247 35.459C99.0758 35.459 98.7329 35.4146 98.3988 35.3259C98.0647 35.2372 97.7454 35.0598 97.4468 34.7938C97.2398 34.6223 97.0832 34.439 96.9678 34.2438C96.8555 34.0487 96.7698 33.8595 96.7106 33.6703C96.6515 33.4811 96.616 33.3037 96.6042 33.1381C96.6012 32.9667 96.5953 32.8218 96.5953 32.6976Z" fill="#575756"/>
<path d="M105.113 29.8091C105.633 29.8091 106.068 29.8919 106.426 30.0604C106.78 30.229 107.067 30.4448 107.286 30.7168C107.505 30.9888 107.661 31.2903 107.759 31.6303C107.854 31.9674 107.904 32.3044 107.904 32.6385C107.904 33.1233 107.83 33.5432 107.682 33.8979C107.534 34.2527 107.333 34.5454 107.076 34.776C106.819 35.0036 106.517 35.1751 106.171 35.2875C105.823 35.3998 105.447 35.456 105.042 35.456C104.72 35.456 104.442 35.4264 104.208 35.3702C103.972 35.3111 103.774 35.2402 103.608 35.1544C103.443 35.0687 103.307 34.98 103.203 34.8883C103.097 34.7967 103.014 34.7139 102.952 34.637C102.692 34.3414 102.511 34.028 102.411 33.6939C102.307 33.3599 102.257 32.9903 102.257 32.5853C102.257 32.0856 102.337 31.6599 102.5 31.3051C102.659 30.9503 102.872 30.6636 103.138 30.4448C103.404 30.226 103.712 30.0664 104.055 29.9629C104.395 29.8594 104.749 29.8091 105.113 29.8091ZM105.092 31.2135C104.865 31.2135 104.693 31.2696 104.569 31.3879C104.445 31.5032 104.353 31.6392 104.297 31.7929C104.238 31.9467 104.205 32.1004 104.194 32.2541C104.185 32.4079 104.179 32.5261 104.179 32.6089C104.179 32.6917 104.185 32.8129 104.199 32.9726C104.214 33.1352 104.25 33.2948 104.309 33.4545C104.365 33.6171 104.454 33.7531 104.575 33.8713C104.693 33.9866 104.862 34.0458 105.081 34.0458C105.284 34.0458 105.447 33.9955 105.568 33.8979C105.69 33.8004 105.778 33.6791 105.84 33.5402C105.902 33.3983 105.938 33.2534 105.953 33.0997C105.964 32.9459 105.973 32.81 105.973 32.6946C105.973 32.2837 105.911 31.9467 105.787 31.6806C105.728 31.5564 105.645 31.45 105.542 31.3583C105.438 31.2578 105.29 31.2135 105.092 31.2135Z" fill="#575756"/>
<path d="M108.575 31.0361C108.575 30.9622 108.581 30.8765 108.59 30.7819C108.599 30.6843 108.619 30.5897 108.649 30.4892C108.682 30.3916 108.726 30.297 108.788 30.2083C108.85 30.1196 108.936 30.0428 109.045 29.9836C109.175 29.9156 109.317 29.8802 109.477 29.8802C109.628 29.8802 109.769 29.9186 109.908 29.9925C110.018 30.0516 110.104 30.1285 110.169 30.2113C110.234 30.297 110.281 30.3828 110.313 30.4685C110.343 30.5542 110.367 30.6341 110.376 30.708C110.387 30.7848 110.39 30.841 110.39 30.8824C110.405 30.8558 110.417 30.8292 110.432 30.7996C110.447 30.773 110.458 30.7464 110.473 30.7168C110.494 30.6755 110.535 30.6104 110.6 30.5188C110.665 30.4271 110.763 30.3325 110.893 30.2349C111.023 30.1403 111.186 30.0546 111.384 29.9777C111.582 29.9009 111.824 29.8654 112.111 29.8654C112.309 29.8654 112.501 29.8949 112.685 29.9482C112.868 30.0014 113.039 30.093 113.199 30.2142C113.314 30.3148 113.4 30.4153 113.456 30.5128C113.509 30.6075 113.557 30.7021 113.601 30.7996C113.642 30.7257 113.687 30.6488 113.74 30.569C113.79 30.4892 113.873 30.4035 113.991 30.3059C114.115 30.2054 114.278 30.1049 114.485 30.0073C114.689 29.9127 114.967 29.8624 115.316 29.8624C115.526 29.8624 115.733 29.8949 115.931 29.9541C116.129 30.0162 116.306 30.1196 116.463 30.2615C116.578 30.3621 116.67 30.4744 116.738 30.5956C116.806 30.7139 116.856 30.8381 116.892 30.9681C116.924 31.0982 116.945 31.2283 116.954 31.3643C116.96 31.4973 116.966 31.6363 116.966 31.7782V34.2794C116.966 34.3799 116.954 34.4893 116.933 34.6016C116.912 34.714 116.862 34.8293 116.779 34.9446C116.685 35.0865 116.569 35.1929 116.43 35.2609C116.294 35.3289 116.15 35.3644 115.999 35.3644C115.789 35.3644 115.6 35.2994 115.437 35.1693C115.251 35.0274 115.138 34.8736 115.1 34.7081C115.059 34.5425 115.038 34.4035 115.038 34.2882V32.198C115.038 32.0473 115.035 31.9467 115.026 31.8994C115.02 31.8521 115.008 31.8019 114.985 31.7457C114.943 31.6156 114.869 31.5151 114.763 31.4441C114.657 31.3702 114.541 31.3347 114.411 31.3347C114.219 31.3347 114.062 31.3998 113.938 31.5299C113.843 31.6304 113.784 31.7457 113.764 31.8669C113.743 31.9881 113.734 32.1241 113.734 32.266V34.2439C113.734 34.3888 113.719 34.5336 113.693 34.6785C113.666 34.8263 113.583 34.9682 113.447 35.1042C113.37 35.1811 113.279 35.2402 113.169 35.2905C113.06 35.3378 112.939 35.3614 112.8 35.3614C112.69 35.3614 112.587 35.3437 112.492 35.3112C112.398 35.2757 112.312 35.2314 112.235 35.1781C112.126 35.0954 112.043 35.0067 111.984 34.9061C111.925 34.8086 111.883 34.7081 111.857 34.6046C111.83 34.5011 111.815 34.4035 111.812 34.306C111.809 34.2114 111.806 34.1256 111.806 34.0488V32.1419C111.806 32.0798 111.801 32.0029 111.792 31.9113C111.783 31.8196 111.753 31.7309 111.709 31.6511C111.665 31.5683 111.602 31.5003 111.52 31.4412C111.437 31.382 111.325 31.3554 111.18 31.3554C111.035 31.3554 110.92 31.385 110.831 31.4471C110.757 31.5003 110.695 31.5624 110.653 31.6274C110.609 31.6925 110.577 31.7575 110.556 31.8285C110.538 31.8965 110.523 31.9645 110.515 32.0295C110.506 32.0946 110.503 32.1507 110.503 32.198V34.2676C110.503 34.3829 110.491 34.4982 110.467 34.6105C110.444 34.7228 110.39 34.8381 110.308 34.9535C110.213 35.0835 110.098 35.1841 109.965 35.255C109.832 35.326 109.693 35.3644 109.551 35.3644C109.435 35.3644 109.317 35.3407 109.205 35.2934C109.087 35.2461 108.986 35.1811 108.897 35.0983C108.752 34.9535 108.664 34.8027 108.631 34.643C108.599 34.4834 108.581 34.3415 108.581 34.2173V31.0361H108.575Z" fill="#575756"/>
<path d="M95.271 33.9541C95.271 35.0835 94.3545 36 93.2252 36C92.0958 36 91.1793 35.0835 91.1793 33.9541C91.1793 32.8248 92.0958 31.9083 93.2252 31.9083C94.3545 31.9083 95.271 32.8248 95.271 33.9541Z" fill="#DD1E2F"/>
<path d="M5.1959 1.06921C2.43134 1.06921 0.183075 3.31748 0.183075 6.0857V22.5962C0.183075 23.0136 0.241662 23.4201 0.336865 23.8082L13.5738 1.06921H5.1959Z" fill="#DD1E2F"/>
<path d="M25.7122 3.07581C24.7968 1.86013 23.3468 1.06921 21.71 1.06921H15.0641L0.922729 25.2033C1.80519 26.646 3.38703 27.6127 5.19956 27.6127H11.4317L25.7122 3.07581Z" fill="#FFD84F"/>
<path d="M21.7101 27.609C24.4746 27.609 26.7229 25.3607 26.7229 22.5961V6.08568C26.7229 5.49615 26.6167 4.93225 26.4263 4.40497L12.8268 27.609H21.7101Z" fill="#DD1E2F"/>
<path d="M21.71 0.886108H5.19591C2.33248 0.886108 0 3.21859 0 6.08568V22.5962C0 25.4632 2.33248 27.7921 5.19591 27.7921H21.7064C24.5735 27.7921 26.9023 25.4596 26.9023 22.5962V6.08568C26.906 3.21859 24.5735 0.886108 21.71 0.886108ZM5.19591 2.71694H12.5705L1.83084 21.1644V6.08568C1.83084 4.22921 3.33944 2.71694 5.19591 2.71694ZM1.93336 23.4017L14.0535 2.72061H21.71C23.0539 2.72061 24.211 3.51153 24.7529 4.65397L12.3435 25.9612H5.19591C3.61773 25.9612 2.29221 24.8701 1.93336 23.4017ZM21.71 25.9612H13.7496L25.0751 6.63493V22.5962C25.0751 24.4526 23.5665 25.9612 21.71 25.9612Z" fill="white"/>
</svg>
