<?xml version="1.0" encoding="UTF-8"?>
<svg id="Capa_2" data-name="Capa 2" xmlns="http://www.w3.org/2000/svg" viewBox="0 0 172.69 62.08">
  <defs>
    <style>
      .cls-1 {
        fill: #ee0053;
      }

      .cls-2 {
        fill: #fff;
      }
    </style>
  </defs>
  <g id="Capa_1-2" data-name="Capa 1">
    <g>
      <rect class="cls-1" x="0" y="0" width="172.69" height="62.08" rx="31.04" ry="31.04"/>
      <g>
        <path class="cls-2" d="m58.65,25.96v-2.68c0-.73.63-1.32,1.41-1.32s1.41.59,1.41,1.32v8.58c0,3.26-2.25,4.9-5.41,4.9-3.53,0-5.59-1.88-5.59-5.87s2.01-5.9,5.3-5.9c1.25,0,2.35.49,2.87.98Zm0,2.52s-1.02-1.25-2.59-1.25c-1.78,0-2.8,1.22-2.8,3.65s.99,3.62,2.8,3.62c1.52,0,2.59-.95,2.59-2.64v-3.38Z"/>
        <path class="cls-2" d="m65.92,26.58c.5-.95,1.72-1.57,2.82-1.57.73,0,1.33.56,1.33,1.25s-.6,1.25-1.33,1.25c-1.8,0-2.82,1.08-2.82,2.72v5.09c0,.73-.63,1.32-1.41,1.32s-1.41-.59-1.41-1.32v-8.86c0-.73.63-1.32,1.41-1.32s1.41.59,1.41,1.32v.12Z"/>
        <path class="cls-2" d="m76,36.76c-3.53,0-5.72-1.88-5.72-5.87s2.19-5.9,5.72-5.9,5.72,1.88,5.72,5.9-2.19,5.87-5.72,5.87Zm0-9.52c-1.88,0-2.87,1.22-2.87,3.65s.99,3.62,2.87,3.62,2.87-1.22,2.87-3.62-.99-3.65-2.87-3.65Z"/>
        <path class="cls-2" d="m83.08,30.86c0-3.99,2.06-5.87,5.59-5.87,3.16,0,5.41,1.64,5.41,4.9v6.19c0,3.38-1.78,5.29-5.64,5.29-2.12,0-3.68-.61-4.57-1.62-.13-.15-.26-.39-.26-.71,0-.64.57-1.17,1.25-1.17.31,0,.52.1.84.29.65.44,1.52.95,2.74.95,1.86,0,2.8-.91,2.8-2.4v-.93c-.52.49-1.59.98-2.85.98-3.29,0-5.3-1.91-5.3-5.9Zm8.18-.98c0-1.69-1.07-2.64-2.59-2.64-1.8,0-2.8,1.22-2.8,3.62s1.02,3.65,2.8,3.65c1.57,0,2.59-1.25,2.59-1.25v-3.38Z"/>
        <path class="cls-2" d="m98.99,26.45v5.7c0,1.13.42,2.2,2.35,2.2s2.33-1.08,2.33-2.2v-5.7c0-.73.63-1.32,1.41-1.32s1.41.59,1.41,1.32v5.7c0,2.4-.97,4.6-5.15,4.6s-5.17-2.2-5.17-4.6v-5.7c0-.73.63-1.32,1.41-1.32s1.41.59,1.41,1.32Z"/>
        <path class="cls-2" d="m114.12,24.98c4.42,0,5.23,3.18,5.23,4.87,0,.91,0,1.96-1.59,1.96h-6.45c0,1.76,1.33,2.57,3.06,2.57,1.15,0,1.96-.37,2.59-.76.29-.17.5-.27.84-.27.68,0,1.23.51,1.23,1.15,0,.39-.21.71-.44.91-.44.39-1.83,1.35-4.21,1.35-3.63,0-5.88-1.84-5.88-5.92,0-3.75,2.09-5.85,5.64-5.85Zm-2.74,4.63h5.17c0-1.2-.73-2.37-2.43-2.37-1.52,0-2.61.81-2.74,2.37Z"/>
        <path class="cls-2" d="m124.37,26.58c.5-.95,1.72-1.57,2.82-1.57.73,0,1.33.56,1.33,1.25s-.6,1.25-1.33,1.25c-1.8,0-2.82,1.08-2.82,2.72v5.09c0,.73-.63,1.32-1.41,1.32s-1.41-.59-1.41-1.32v-8.86c0-.73.63-1.32,1.41-1.32s1.41.59,1.41,1.32v.12Z"/>
        <path class="cls-2" d="m133.08,35.31c0,.73-.63,1.32-1.41,1.32s-1.41-.59-1.41-1.32v-8.86c0-.73.63-1.32,1.41-1.32s1.41.59,1.41,1.32v8.86Z"/>
        <path class="cls-2" d="m144.93,25.13c-.55,0-1.02.29-1.25.71-.84-.58-1.91-.86-3.16-.86-3.24,0-5.26,1.88-5.26,5.9s2.02,5.87,5.26,5.87c1.25,0,2.31-.28,3.15-.85.23.43.71.73,1.26.73.78,0,1.41-.59,1.41-1.32v-8.86c0-.73-.63-1.32-1.41-1.32Zm-4.42,9.38c-1.73,0-2.64-1.22-2.64-3.62s.91-3.65,2.64-3.65,2.64,1.22,2.64,3.65-.91,3.62-2.64,3.62Z"/>
        <path class="cls-2" d="m128.63,37.81c1.18,0,1.83.58,2.04.86.07.09.09.15.09.24,0,.21-.17.36-.39.36-.13,0-.23-.05-.32-.15-.2-.21-.56-.58-1.43-.58-1.22,0-1.87.73-1.87,2.26s.65,2.28,1.87,2.28c.77,0,1.23-.32,1.54-.53.09-.06.16-.09.25-.09.21,0,.38.16.38.36,0,.11-.04.2-.17.31-.29.22-.93.67-2,.67-1.71,0-2.73-.96-2.73-3s1.02-2.98,2.73-2.98Z"/>
        <path class="cls-2" d="m136.67,40.79c0,2.04-1.06,3-2.79,3s-2.79-.96-2.79-3,1.08-2.98,2.79-2.98,2.79.95,2.79,2.98Zm-.86,0c0-1.57-.7-2.26-1.92-2.26s-1.92.7-1.92,2.26.7,2.28,1.92,2.28,1.92-.68,1.92-2.28Z"/>
        <path class="cls-2" d="m146.34,40.01v3.32c0,.22-.19.4-.42.4s-.42-.17-.42-.4v-3.16c0-.98-.37-1.65-1.66-1.65-1.14,0-1.66.57-1.66,1.49v3.32c0,.22-.19.4-.42.4s-.42-.17-.42-.4v-3.16c0-.98-.33-1.65-1.63-1.65s-1.63.7-1.63,1.74v3.07c0,.22-.19.4-.42.4s-.42-.17-.42-.4v-5.05c0-.22.19-.4.42-.4s.42.17.42.4v.4c.23-.46.86-.87,1.73-.87,1.09,0,1.79.37,2.11.87.33-.49.92-.87,1.94-.87,2.04,0,2.51,1.14,2.51,2.2Z"/>
        <path class="cls-2" d="m97.16,43.49l-2.15-5.05s-.04-.09-.04-.17c0-.22.18-.4.4-.4s.33.14.38.26l1.78,4.31,1.78-4.31c.05-.12.15-.26.38-.26s.4.17.4.4c0,.09-.03.14-.04.17l-2.15,5.05c-.08.16-.22.25-.38.25s-.3-.09-.38-.25Z"/>
        <path class="cls-2" d="m101.63,43.34c0,.22-.19.4-.43.4s-.43-.17-.43-.4v-5.07c0-.22.19-.4.43-.4s.43.17.43.4v5.07Z"/>
        <path class="cls-2" d="m120.28,38.23c-.21,0-.38.16-.38.36h0c-.48-.48-1.16-.72-2.02-.72-1.69,0-2.75.93-2.75,2.95s1.06,2.96,2.75,2.96c.85,0,1.54-.24,2.02-.73v.08c0,.2.17.36.38.36s.38-.16.38-.36v-4.54c0-.2-.17-.36-.38-.36Zm-2.4,4.83c-1.21,0-1.9-.67-1.9-2.25s.69-2.23,1.9-2.23,1.9.69,1.9,2.23-.69,2.25-1.9,2.25Z"/>
        <path class="cls-2" d="m103.09,38.91c.27-.57.93-1,1.85-1,.23,0,.41.17.41.39s-.19.39-.41.39c-1.23,0-1.85.8-1.85,1.95v2.8c0,.22-.19.4-.43.4s-.43-.17-.43-.4v-5.07c0-.22.19-.4.43-.4s.43.17.43.4v.55Z"/>
        <path class="cls-2" d="m106.71,37.13c0-.21.2-.4.43-.4.24,0,.43.19.43.4v.84h.87c.23,0,.4.16.4.37s-.17.37-.4.37h-.87v3.45c0,.54.32.82.77.82.23,0,.41.16.41.37s-.19.37-.41.37c-1.05,0-1.63-.66-1.63-1.57v-3.45h-.52c-.23,0-.4-.16-.4-.37s.17-.37.4-.37h.52v-.84Z"/>
        <path class="cls-2" d="m110.35,38.27v3.26c0,.81.28,1.51,1.63,1.51s1.63-.7,1.63-1.51v-3.26c0-.22.2-.4.44-.4.23,0,.41.17.41.4v3.26c0,1.19-.41,2.27-2.48,2.27s-2.48-1.09-2.48-2.27v-3.26c0-.22.19-.4.43-.4.23,0,.43.17.43.4Z"/>
        <path class="cls-2" d="m122.12,37.13v5.15c0,.5.17.71.53.71.21,0,.4.16.4.37s-.19.37-.4.37c-.89,0-1.39-.5-1.39-1.46v-5.15c0-.21.2-.4.43-.4.24,0,.43.19.43.4Z"/>
        <circle class="cls-2" cx="124.19" cy="40.43" r=".78"/>
        <g>
          <circle class="cls-2" cx="36.13" cy="41.47" r="2.34"/>
          <circle class="cls-2" cx="44.63" cy="41.47" r="2.34"/>
          <path class="cls-2" d="m41.12,26.41l.25,5.7c0,1.13.42,2.2,2.35,2.2s2.33-1.08,2.33-2.2v-5.7c0-.73.63-1.32,1.41-1.32s1.41.59,1.41,1.32v5.7c0,2.4-.97,4.6-5.15,4.6s-5.17-2.2-5.17-4.6l-.25-5.7c0-.73.63-1.32,1.41-1.32s1.41.59,1.41,1.32Z"/>
          <path class="cls-2" d="m37.5,23.12v-.42c0-.53-.43-.97-.97-.97h-2.52l-.26-2.3c-.09-.69-.75-1.23-1.49-1.18-.36.02-.7.19-.93.46-.21.26-.31.58-.27.9l.24,2.12h-3.99c-.53,0-.97.43-.97.97v.42c0,.53.43.97.97.97h4.26l1.12,9.83c.21,1.68,1.56,2.77,3.4,2.77.09,0,.18,0,.27,0,.34-.02.63-.16.84-.41.19-.23.28-.52.24-.82-.08-.63-.68-1.11-1.34-1.07-.27.01-.66-.14-.71-.51l-1.12-9.78h2.25c.53,0,.97-.43.97-.97Z"/>
        </g>
      </g>
    </g>
  </g>
</svg>